<?xml version="1.0" encoding="UTF-8" standalone="no"?>
<svg
   width="25"
   height="25"
   viewBox="0 0 25 25"
   fill="none"
   version="1.1"
   id="svg1"
   sodipodi:docname="logo.svg"
   inkscape:version="1.4.3 (0d15f75042, 2025-12-25)"
   inkscape:export-filename="logo.jpg"
   inkscape:export-xdpi="245.75999"
   inkscape:export-ydpi="245.75999"
   xmlns:inkscape="http://www.inkscape.org/namespaces/inkscape"
   xmlns:sodipodi="http://sodipodi.sourceforge.net/DTD/sodipodi-0.dtd"
   xmlns="http://www.w3.org/2000/svg"
   xmlns:svg="http://www.w3.org/2000/svg">
  <defs
     id="defs1" />
  <sodipodi:namedview
     id="namedview1"
     pagecolor="#ffffff"
     bordercolor="#000000"
     borderopacity="0.25"
     inkscape:showpageshadow="2"
     inkscape:pageopacity="0.0"
     inkscape:pagecheckerboard="0"
     inkscape:deskcolor="#d1d1d1"
     inkscape:zoom="31.282404"
     inkscape:cx="2.4934145"
     inkscape:cy="13.873614"
     inkscape:window-width="2560"
     inkscape:window-height="1366"
     inkscape:window-x="0"
     inkscape:window-y="0"
     inkscape:window-maximized="1"
     inkscape:current-layer="layer2" />
  <g
     inkscape:groupmode="layer"
     id="layer3"
     inkscape:label="outer">
    <circle
       style="fill:#ffffff;fill-opacity:1;stroke:#000000;stroke-width:0.980919;stroke-linecap:round;stroke-linejoin:round;paint-order:normal"
       id="path2"
       cx="12.5"
       cy="12.499999"
       r="12.009541" />
  </g>
  <g
     inkscape:groupmode="layer"
     id="layer2"
     inkscape:label="inner"
     style="display:inline">
    <path
       fill-rule="evenodd"
       clip-rule="evenodd"
       d="M 7.1217212,4.223841 C 7.2659108,4.288319 7.3960819,4.3945174 7.5142372,4.5348512 7.7111628,4.766971 7.877388,5.0992132 8.0042214,5.492904 8.1317223,5.8888713 8.2144978,6.3273211 8.2458724,6.7672862 8.6661583,6.4971043 9.1326115,6.3325746 9.6136707,6.2848452 l 0.034045,-0.00303 c 0.5807703,-0.053097 1.1548583,0.065993 1.6555233,0.3595594 0.06742,0.040206 0.133509,0.083443 0.19826,0.1289562 0.03337,-0.4316208 0.114818,-0.8602109 0.240317,-1.2470795 0.126832,-0.3944519 0.293051,-0.7259303 0.489309,-0.9588085 0.109678,-0.134824 0.243854,-0.2409434 0.393184,-0.3110102 0.171559,-0.075857 0.353798,-0.08951 0.531365,-0.03186 0.267685,0.086477 0.49732,0.279151 0.678225,0.5590603 0.165551,0.2556248 0.289715,0.5833222 0.374492,0.9762588 0.153536,0.7084981 0.180237,1.6407705 0.07677,2.7649551 l 0.03538,0.030347 0.01735,0.014412 c 0.505331,0.4369278 0.857126,1.0597065 1.043372,1.7826172 0.290448,1.12797 0.144256,2.393233 -0.356469,3.10103 l -0.01202,0.01589 0.0013,0.0023 c 0.278433,0.578027 0.447322,1.188696 0.483369,1.820594 l 0.0013,0.02276 c 0.04272,0.807862 -0.133575,1.620997 -0.543448,2.419781 l -0.0047,0.0076 0.0067,0.01816 c 0.315081,0.877687 0.413878,1.761382 0.292385,2.644342 l -0.004,0.02964 c -0.01883,0.128903 -0.08191,0.244254 -0.175364,0.320354 -0.09346,0.07617 -0.209742,0.107274 -0.323291,0.08618 -0.0562,-0.01002 -0.110145,-0.03244 -0.158742,-0.06615 -0.04853,-0.03365 -0.09079,-0.07797 -0.124297,-0.130305 -0.03345,-0.0522 -0.05754,-0.11148 -0.07082,-0.174429 -0.01329,-0.06282 -0.01555,-0.128102 -0.0066,-0.19192 0.11148,-0.783629 0.0067,-1.569463 -0.320421,-2.36898 -0.03051,-0.0743 -0.04406,-0.156139 -0.03939,-0.237914 0.0047,-0.08184 0.02737,-0.160944 0.06609,-0.230168 l 0.0026,-0.0045 c 0.403197,-0.700922 0.570084,-1.388159 0.534036,-2.063246 -0.0307,-0.590977 -0.216952,-1.171274 -0.534036,-1.724267 -0.06168,-0.107475 -0.08364,-0.238247 -0.06115,-0.364011 0.02249,-0.125766 0.08759,-0.236445 0.181305,-0.308073 l 0.006,-0.0045 c 0.162214,-0.120625 0.311743,-0.428563 0.387176,-0.849583 0.08324,-0.497788 0.06149,-1.010929 -0.06342,-1.497395 C 14.408655,10.091303 14.158325,9.648307 13.807865,9.3456358 13.410676,9.0012497 12.884651,8.8351247 12.219109,8.8829142 12.132061,8.8893511 12.045348,8.8659719 11.970115,8.8157992 11.89495,8.7656266 11.83467,8.6909818 11.797222,8.6014909 11.587613,8.0970477 11.281877,7.735973 10.900709,7.5121987 10.534755,7.3046526 10.125056,7.2174313 9.7178075,7.2603544 8.8867149,7.3354531 8.1537513,7.8679598 7.9354643,8.5392891 7.9045837,8.6337733 7.8490307,8.7152871 7.776255,8.7729095 7.7034794,8.8305119 7.6169456,8.8614927 7.5282557,8.8616796 6.8159859,8.8631949 6.2645944,9.0528376 5.8613976,9.3949473 5.5129395,9.6907829 5.2752871,10.1042 5.1497888,10.599544 c -0.1135626,0.466234 -0.1291164,0.956344 -0.045394,1.430634 0.074765,0.423291 0.2209571,0.773751 0.3885175,0.962599 l 0.00534,0.0054 c 0.1415194,0.157006 0.1715588,0.402061 0.072763,0.595449 -0.2403226,0.47182 -0.419892,1.175011 -0.449264,1.8509 -0.033378,0.772215 0.1241632,1.442764 0.479971,1.923729 l 0.010681,0.01442 c 0.053697,0.0711 0.088223,0.158274 0.099477,0.251129 0.011242,0.09279 -0.00128,0.187314 -0.036061,0.272292 -0.3845122,0.937566 -0.5026675,1.708246 -0.3751666,2.31511 0.02291,0.126233 0.00159,0.257606 -0.059438,0.366081 -0.061027,0.10861 -0.1569398,0.185845 -0.2673248,0.215284 -0.1103852,0.02957 -0.2265232,0.0088 -0.3237049,-0.05754 -0.097194,-0.06648 -0.1677382,-0.17329 -0.1966429,-0.297854 -0.162214,-0.772215 -0.052069,-1.656711 0.3157478,-2.653421 l 0.00935,-0.02657 -0.00534,-0.0091 C 4.5925101,17.454643 4.4576008,17.119069 4.3741036,16.765137 l -0.00334,-0.01442 c -0.101329,-0.441583 -0.141195,-0.89845 -0.1181511,-1.354049 0.029372,-0.690307 0.1855779,-1.397237 0.4152125,-1.96465 l 0.00801,-0.01976 -0.00133,-0.0015 C 4.4789088,13.09371 4.334051,12.687843 4.2539457,12.238786 l -0.00334,-0.01823 c -0.11037,-0.62635 -0.089102,-1.273468 0.062084,-1.888784 C 4.4875869,9.6376864 4.8313715,9.0414559 5.3380362,8.6105895 5.3780889,8.5764579 5.4201442,8.5423197 5.4621995,8.5104645 5.3560599,7.3779289 5.3827617,6.4395886 5.5369711,5.7265379 5.6217492,5.333608 5.74658,5.0059105 5.912131,4.7502831 6.0923679,4.4711321 6.3220032,4.2784575 6.5896884,4.1912229 6.7672552,4.1335723 6.9501623,4.1472264 7.1217212,4.223841 Z m 2.7476189,6.89534 c 0.6248279,0 1.2015939,0.237378 1.6328269,0.648519 0.420552,0.399793 0.670882,0.936832 0.670882,1.471668 0,0.673552 -0.271023,1.198509 -0.756328,1.53375 -0.413878,0.284508 -0.968613,0.422556 -1.6041222,0.422556 -0.6735521,0 -1.2489753,-0.196459 -1.6641878,-0.556799 -0.4118748,-0.356535 -0.6428519,-0.857194 -0.6428519,-1.399507 0,-0.536305 0.2656893,-1.074946 0.7049335,-1.476208 0.4459196,-0.407334 1.0346936,-0.643979 1.6588475,-0.643979 z m 0,0.679627 c -0.4631155,-0.0045 -0.9139616,0.169223 -1.2790148,0.493115 -0.3077379,0.280636 -0.481967,0.633366 -0.481967,0.948179 0,0.324627 0.1401843,0.628827 0.407202,0.860198 0.3037327,0.263213 0.7503198,0.41568 1.2970385,0.41568 0.5333752,0 0.9833002,-0.11148 1.2897092,-0.323158 0.309073,-0.212346 0.467281,-0.520351 0.467281,-0.953454 0,-0.320888 -0.164216,-0.675154 -0.455933,-0.952785 -0.323098,-0.307205 -0.761007,-0.487775 -1.2443159,-0.487775 z m 0.4419209,0.917873 0.0027,0.0031 c 0.0801,0.114485 0.06342,0.280636 -0.03738,0.37169 l -0.194922,0.174428 v 0.338312 c -3.61e-4,0.07536 -0.02698,0.147461 -0.07403,0.200464 -0.047056,0.05307 -0.1106991,0.08271 -0.1769729,0.08251 -0.066274,2e-4 -0.1299175,-0.02944 -0.1769659,-0.08251 -0.047062,-0.053 -0.073683,-0.125098 -0.074031,-0.200464 v -0.348926 l -0.1809045,-0.16535 c -0.023871,-0.02176 -0.043711,-0.04859 -0.058384,-0.0791 -0.014673,-0.03051 -0.023884,-0.06395 -0.027115,-0.09853 -0.00323,-0.03458 -4.006e-4,-0.06949 0.00832,-0.102802 0.00872,-0.03331 0.023151,-0.06435 0.042469,-0.09125 0.039398,-0.05454 0.09614,-0.08912 0.1578875,-0.09639 0.061734,-0.0072 0.1235091,0.01348 0.1718794,0.05768 l 0.1435219,0.130506 0.1468598,-0.131974 c 0.048197,-0.04332 0.1093707,-0.06349 0.1704637,-0.0562 0.06111,0.0072 0.117308,0.04126 0.15664,0.09486 z M 6.9468246,11.261034 c 0.3190862,0 0.5787609,0.295789 0.5787609,0.660668 1.735e-4,0.174897 -0.060747,0.342717 -0.169396,0.466614 -0.1086495,0.123896 -0.2561234,0.193722 -0.4100324,0.194122 -0.1536821,-6e-4 -0.3008889,-0.07043 -0.4093649,-0.194122 -0.1084893,-0.123696 -0.169396,-0.291183 -0.169396,-0.465812 -3.604e-4,-0.174897 0.060399,-0.342851 0.1689154,-0.466881 0.1085293,-0.124029 0.256604,-0.193988 0.410513,-0.194589 z m 5.8116604,0 c 0.320422,0 0.579429,0.295789 0.579429,0.660668 2e-4,0.174897 -0.06075,0.342717 -0.169423,0.466614 -0.108609,0.123896 -0.25607,0.193722 -0.410006,0.194122 -0.153668,-6e-4 -0.300862,-0.07043 -0.409338,-0.194122 -0.108543,-0.123696 -0.169423,-0.291183 -0.169423,-0.465812 -3.33e-4,-0.174897 0.06041,-0.342851 0.168889,-0.466881 0.108543,-0.124029 0.255937,-0.193988 0.409872,-0.194589 z m -5.9471719,-6.119345 -0.002,0.00152 C 6.7319691,5.181421 6.6659354,5.244097 6.6190604,5.3237417 l -0.00334,0.00455 C 6.5236015,5.4716628 6.4434962,5.6825467 6.3834172,5.9594173 6.2699347,6.4843475 6.2392277,7.1966305 6.3006418,8.0697384 6.5876858,7.9726441 6.9007641,7.9119577 7.2378739,7.889962 l 0.00668,-7.609e-4 0.012683,-0.025794 C 7.2879389,7.801205 7.320649,7.7412795 7.3560288,7.6821151 7.4381372,7.0972599 7.3707152,6.3986281 7.1871405,5.8281915 7.0976896,5.5520752 6.9888799,5.3351233 6.884743,5.2114807 6.863248,5.1857807 6.839283,5.1628837 6.813316,5.1432047 Z m 6.1240719,0.030346 -0.0013,7.543e-4 c -0.02597,0.019679 -0.04993,0.042569 -0.07142,0.06827 -0.104137,0.1236492 -0.213614,0.3413554 -0.302397,0.6174717 -0.193588,0.6022985 -0.25834,1.3472045 -0.153536,1.9510183 l 0.03872,0.073584 0.0054,0.010621 h 0.02003 c 0.331303,1.068e-4 0.660869,0.054265 0.97862,0.1608114 0.05741,-0.8526209 0.02537,-1.5497374 -0.08544,-2.0648012 C 13.30393,5.7128869 13.22382,5.5020096 13.131031,5.3586411 l -0.0026,-0.00455 c -0.04684,-0.079938 -0.11286,-0.1428677 -0.190295,-0.1812982 z"
       fill="#000000"
       id="path1"
       style="stroke-width:0.667545" />
    <g
       id="g1"
       style="display:inline"
       transform="matrix(0.66754427,0,0,0.66754427,4.1810753,4.1556927)">
      <path
         d="m 23.853865,2.3473224 c -0.07714,0.00358 -0.130717,0.048223 -0.130717,0.048223 h -6.96721 c 0,0 -0.795009,-0.4937373 -0.733882,2.1700152 0.02743,1.1955834 0.06797,1.8337887 0.158728,2.1780523 v 0.00201 l -0.03734,0.056259 -1.282893,3.8477591 3.607786,-3.472025 c 2.041457,0.00222 5.195063,-0.014065 5.195063,-0.014065 0,0 0.794324,0.06449 0.76376,-2.632148 C 24.40518,2.5931899 24.050996,2.3381778 23.853867,2.3473186 Z"
         style="fill:#ffffff;fill-opacity:0;stroke:#000000;stroke-width:0.991759;stroke-linejoin:round;paint-order:markers fill stroke"
         id="path10" />
      <rect
         style="fill:#ffffff;fill-opacity:1;stroke:#000000;stroke-width:0.965856;stroke-linejoin:round;stroke-opacity:1;paint-order:markers fill stroke"
         id="rect10"
         width="0.030875366"
         height="1.1115131"
         x="17.948299"
         y="4.3318973" />
      <rect
         style="fill:#ffffff;fill-opacity:1;stroke:#000000;stroke-width:0.965856;stroke-linejoin:round;stroke-opacity:1;paint-order:markers fill stroke"
         id="rect10-1"
         width="0.030875366"
         height="1.1115131"
         x="22.377125"
         y="4.2321954" />
      <rect
         style="fill:#ffffff;fill-opacity:1;stroke:#000000;stroke-width:0.965856;stroke-linejoin:round;stroke-opacity:1;paint-order:markers fill stroke"
         id="rect12"
         width="0.030875366"
         height="2.6552813"
         x="20.171326"
         y="3.467387" />
      <rect
         style="fill:#ffffff;fill-opacity:1;stroke:#000000;stroke-width:0.965856;stroke-linejoin:round;stroke-opacity:1;paint-order:markers fill stroke"
         id="rect13"
         width="0.030875366"
         height="1.9760234"
         x="19.059813"
         y="3.8070161" />
      <rect
         style="fill:#ffffff;fill-opacity:1;stroke:#000000;stroke-width:0.965856;stroke-linejoin:round;stroke-opacity:1;paint-order:markers fill stroke"
         id="rect13-3"
         width="0.030875366"
         height="1.9760234"
         x="21.313925"
         y="3.8199499" />
    </g>
  </g>
</svg>
